<svg width="100" height="25" viewBox="0 0 100 25" fill="none" xmlns="http://www.w3.org/2000/svg">
<path d="M21.2754 7.12596H24.3514V10.7146H21.2754V17.9944H16.6615V13.483C13.3805 14.1494 10.1251 14.5083 5.38294 14.5083H-6.87018e-06V10.9966H2.05064V3.71676H0.512654V0.256295H14.6621V3.71676H13.1241V10.6121C14.3801 10.4583 15.5593 10.2788 16.6615 10.0738V-3.52377e-05H21.2754V7.12596ZM2.53767 24.095V16.482H7.25415V20.5321H21.7881V24.095H2.53767ZM6.66459 10.9966C7.30542 10.9709 7.92061 10.9709 8.51017 10.9453V3.71676H6.66459V10.9966ZM49.9845 8.92027V12.5089H46.9085V24.095H42.2946V20.0707C39.0135 21.0191 35.7581 21.5574 31.016 21.5574H26.4021V0.768958H39.5262V4.22942H31.016V18.0456C35.7069 18.0456 39.0392 17.5842 42.2946 16.6615V-3.52377e-05H46.9085V8.92027H49.9845ZM75.6175 8.92027V12.5089H72.5416V24.095H67.9276V-3.52377e-05H72.5416V8.92027H75.6175ZM52.0351 21.5574V0.768958H65.4412V21.5574H52.0351ZM56.6491 18.0456H60.8785V4.28069H56.6491V18.0456ZM95.2268 -3.52377e-05H99.7126V13.8931H95.2268V-3.52377e-05ZM76.1302 11.1503C79.1293 10.5352 81.385 9.58673 82.641 8.38198L77.6682 8.68957V5.35728H83.7176V3.71676H78.1808V0.256295H88.2034V4.87025H89.6645V0.12813H94.0221V13.8931H89.6645V8.45888H87.5369C86.1784 11.0991 82.7692 13.2779 77.5913 14.5852L76.1302 11.1503ZM78.9242 20.4295C85.2556 20.1988 87.1012 18.8915 87.1012 16.6615V14.7133H91.7151V17.0716C91.7151 17.6868 91.6382 18.2763 91.4844 18.8146C94.4578 19.0197 97.4056 19.4298 99.7126 19.9681L98.4822 24.095C95.842 23.1723 92.1509 22.2751 89.1774 21.7881C87.0499 23.2235 83.6407 23.9156 79.4112 24.095L78.9242 20.4295Z" fill="#3692FF"/>
</svg>
